<svg width="16" height="16" viewBox="0 0 16 16" fill="none" xmlns="http://www.w3.org/2000/svg">
<path fill-rule="evenodd" clip-rule="evenodd" d="M8.00001 0.861111C4.80903 0.861111 2.22223 3.44791 2.22223 6.63889C2.22223 10.5389 7.3139 14.9444 7.53056 15.1322C7.80084 15.3634 8.19918 15.3634 8.46945 15.1322C8.72223 14.9444 13.7778 10.5389 13.7778 6.63889C13.7778 3.44791 11.191 0.861111 8.00001 0.861111ZM8.00001 13.6083C6.46167 12.1639 3.66667 9.05111 3.66667 6.63889C3.66667 4.24565 5.60677 2.30556 8.00001 2.30556C10.3932 2.30556 12.3333 4.24565 12.3333 6.63889C12.3333 9.05111 9.53834 12.1711 8.00001 13.6083ZM8.00001 3.75C6.40452 3.75 5.11112 5.0434 5.11112 6.63889C5.11112 8.23438 6.40452 9.52778 8.00001 9.52778C9.5955 9.52778 10.8889 8.23438 10.8889 6.63889C10.8889 5.0434 9.5955 3.75 8.00001 3.75ZM8.00001 8.08333C7.20226 8.08333 6.55556 7.43663 6.55556 6.63889C6.55556 5.84114 7.20226 5.19444 8.00001 5.19444C8.79775 5.19444 9.44445 5.84114 9.44445 6.63889C9.44445 7.43663 8.79775 8.08333 8.00001 8.08333Z" fill="#3E6AF2"/>
</svg>
