<svg width="143" height="143" viewBox="0 0 143 143" fill="none" xmlns="http://www.w3.org/2000/svg">
<path d="M71.6473 142.94C67.8244 142.94 63.9895 142.635 60.2458 142.033C43.7378 139.375 28.6087 130.889 17.651 118.141C6.57437 105.254 0.473389 88.7854 0.473389 71.7664C0.473389 32.519 32.4038 0.592529 71.6473 0.592529C110.891 0.592529 142.821 32.5229 142.821 71.7664C142.821 89.0469 136.554 105.709 125.168 118.683C113.894 131.539 98.4039 139.91 81.5513 142.259C78.2909 142.714 74.9554 142.944 71.6435 142.944L71.6473 142.94ZM71.6473 5.34247C35.0225 5.34247 5.22729 35.1376 5.22729 71.7624C5.22729 104.553 28.6839 132.133 61.0025 137.335C67.5233 138.384 74.3411 138.46 80.8975 137.545C113.489 133.005 138.067 104.723 138.067 71.7624C138.067 35.1376 108.272 5.34247 71.6473 5.34247Z" fill="#5865F2"/>
<path d="M103.748 42.316C97.8452 39.6063 91.5146 37.6096 84.8948 36.4687C84.776 36.4449 84.6529 36.5004 84.5935 36.6113C83.7774 38.0613 82.8782 39.947 82.2444 41.4326C75.1254 40.3669 68.042 40.3669 61.0696 41.4326C60.4397 39.9153 59.505 38.0573 58.6849 36.6113C58.6215 36.5044 58.5025 36.4489 58.3797 36.4687C51.7638 37.6096 45.4333 39.6023 39.5265 42.316C39.475 42.3398 39.4316 42.3754 39.4039 42.423C27.3963 60.365 24.1042 77.8633 25.7206 95.1438C25.7285 95.227 25.7759 95.3102 25.8393 95.3617C33.7625 101.181 41.4361 104.711 48.967 107.052C49.0859 107.088 49.2167 107.044 49.292 106.945C51.0747 104.513 52.6631 101.946 54.0219 99.248C54.1012 99.0895 54.0219 98.9033 53.8594 98.8399C51.3399 97.8852 48.9434 96.7205 46.6338 95.3973C46.4516 95.2903 46.4356 95.0289 46.6059 94.9061C47.0932 94.5416 47.5766 94.1653 48.0401 93.781C48.1233 93.7097 48.242 93.6978 48.3411 93.7414C63.5021 100.662 79.9109 100.662 94.8936 93.7414C94.9926 93.6938 95.1078 93.7097 95.195 93.777C95.6585 94.1573 96.1457 94.5416 96.633 94.9061C96.7994 95.0328 96.7912 95.2903 96.609 95.3973C94.3033 96.7442 91.9026 97.8852 89.3791 98.836C89.2167 98.8993 89.1416 99.0895 89.2209 99.248C90.6114 101.942 92.1998 104.509 93.9469 106.941C94.0182 107.044 94.153 107.088 94.2719 107.052C101.839 104.711 109.516 101.177 117.439 95.3617C117.51 95.3102 117.554 95.2349 117.558 95.1477C119.491 75.1655 114.321 57.8098 103.863 42.4269C103.839 42.3754 103.795 42.3398 103.744 42.316H103.748ZM56.2878 84.6218C51.7241 84.6218 47.9646 80.4304 47.9646 75.2843C47.9646 70.1382 51.6528 65.9469 56.2878 65.9469C60.9229 65.9469 64.6867 70.1739 64.6114 75.2843C64.6114 80.4304 60.9229 84.6218 56.2878 84.6218ZM87.0656 84.6218C82.5018 84.6218 78.7424 80.4304 78.7424 75.2843C78.7424 70.1382 82.4305 65.9469 87.0656 65.9469C91.7006 65.9469 95.4641 70.1739 95.3888 75.2843C95.3888 80.4304 91.7363 84.6218 87.0656 84.6218Z" fill="#5865F2"/>
</svg>
