<svg width="16" height="16" viewBox="0 0 16 16" fill="none" xmlns="http://www.w3.org/2000/svg">
<path fill-rule="evenodd" clip-rule="evenodd" d="M12.6667 2.66667H3.33333C2.22876 2.66667 1.33333 3.5621 1.33333 4.66667V11.3333C1.33333 12.4379 2.22876 13.3333 3.33333 13.3333H12.6667C13.7712 13.3333 14.6667 12.4379 14.6667 11.3333V4.66667C14.6667 3.5621 13.7712 2.66667 12.6667 2.66667ZM12.3933 4L8.47333 7.92C8.34815 8.04621 8.17775 8.1172 8 8.1172C7.82224 8.1172 7.65184 8.04621 7.52666 7.92L3.60666 4H12.3933ZM13.3333 11.3333C13.3333 11.7015 13.0349 12 12.6667 12H3.33333C2.96514 12 2.66666 11.7015 2.66666 11.3333V4.94L6.58666 8.86C7.36751 9.63988 8.63248 9.63988 9.41333 8.86L13.3333 4.94V11.3333Z" fill="#3E6AF2"/>
</svg>
