<svg width="143" height="143" viewBox="0 0 143 143" fill="none" xmlns="http://www.w3.org/2000/svg">
<path d="M71.5321 142.533C67.7052 142.533 63.8703 142.228 60.1305 141.625C43.6226 138.967 28.4935 130.482 17.5357 117.733C6.45914 104.846 0.358154 88.3778 0.358154 71.3588C0.358154 32.1114 32.2886 0.184937 71.5321 0.184937C110.776 0.184937 142.71 32.1153 142.71 71.3588C142.71 88.6393 136.442 105.302 125.057 118.276C113.782 131.131 98.2925 139.502 81.4399 141.851C78.1796 142.307 74.844 142.537 71.5321 142.537V142.533ZM71.5321 4.93488C34.9072 4.93488 5.11206 34.73 5.11206 71.3548C5.11206 104.149 28.5686 131.725 60.8873 136.927C67.4001 137.977 74.2258 138.052 80.7822 137.137C113.374 132.597 137.952 104.315 137.952 71.3548C137.952 34.73 108.157 4.93488 71.5282 4.93488H71.5321Z" fill="#007EBB"/>
<path d="M36.2104 48.1202C34.3762 46.4167 33.4609 44.3091 33.4609 41.8014C33.4609 39.2938 34.3762 37.0911 36.2104 35.3876C38.0447 33.6841 40.4059 32.8324 43.3018 32.8324C46.1978 32.8324 48.4636 33.6841 50.2938 35.3876C52.128 37.0911 53.0433 39.2304 53.0433 41.8014C53.0433 44.3725 52.128 46.4167 50.2938 48.1202C48.4596 49.8236 46.1304 50.6754 43.3018 50.6754C40.4733 50.6754 38.0447 49.8236 36.2104 48.1202ZM51.4982 57.8894V110.091H35.0061V57.8894H51.4982Z" fill="#007EBB"/>
<path d="M106.41 63.0435C110.003 66.9456 111.801 72.3057 111.801 79.1275V109.172H96.1334V81.247C96.1334 77.8083 95.2421 75.1342 93.4594 73.2287C91.6767 71.3232 89.2801 70.3724 86.2693 70.3724C83.2585 70.3724 80.8616 71.3271 79.0789 73.2287C77.2962 75.1342 76.4048 77.8083 76.4048 81.247V109.172H60.6455V57.7468H76.4048V64.5687C78.0013 62.2947 80.1525 60.5001 82.8583 59.177C85.5601 57.8578 88.6027 57.1962 91.9819 57.1962C98.0035 57.1962 102.813 59.1492 106.406 63.0474L106.41 63.0435Z" fill="#007EBB"/>
</svg>
