<svg width="16" height="16" viewBox="0 0 16 16" fill="none" xmlns="http://www.w3.org/2000/svg">
<path fill-rule="evenodd" clip-rule="evenodd" d="M12.96 8.66667C12.8133 8.66667 12.66 8.62 12.5133 8.58667C12.2163 8.52122 11.9244 8.43432 11.64 8.32667C10.9995 8.09366 10.2864 8.3812 9.98667 8.99333L9.84 9.29333C9.19067 8.93212 8.59399 8.48349 8.06667 7.96C7.54318 7.43268 7.09455 6.836 6.73334 6.18667L7.01334 6C7.62547 5.70029 7.91302 4.98717 7.68 4.34667C7.57415 4.06162 7.4873 3.76987 7.42 3.47333C7.38667 3.32667 7.36 3.17333 7.34 3.02C7.17275 2.04985 6.32436 1.34569 5.34 1.36H3.34C2.75863 1.35454 2.20366 1.60234 1.81962 2.03886C1.43559 2.47537 1.26052 3.05739 1.34 3.63333C2.07063 9.37884 6.60521 13.897 12.3533 14.6067H12.6067C13.0983 14.6074 13.5729 14.427 13.94 14.1C14.3666 13.7184 14.6093 13.1724 14.6067 12.6V10.6C14.5898 9.64504 13.9001 8.83526 12.96 8.66667ZM13.2933 12.6667C13.2931 12.8582 13.2105 13.0403 13.0667 13.1667C12.916 13.2967 12.7176 13.3572 12.52 13.3333C7.38402 12.6748 3.34748 8.61905 2.71334 3.48C2.6919 3.28266 2.75212 3.08514 2.88 2.93333C3.00638 2.78948 3.18852 2.70691 3.38 2.70667H5.38C5.6998 2.69955 5.97958 2.92058 6.04667 3.23333C6.07334 3.41556 6.10667 3.59556 6.14667 3.77333C6.22368 4.12476 6.32618 4.47012 6.45334 4.80667L5.52 5.24C5.35883 5.31395 5.23376 5.44907 5.17245 5.61546C5.11115 5.78186 5.11866 5.96583 5.19334 6.12667C6.1528 8.18184 7.80483 9.83387 9.86 10.7933C10.0223 10.86 10.2044 10.86 10.3667 10.7933C10.5346 10.7333 10.6715 10.6084 10.7467 10.4467L11.16 9.51333C11.5046 9.63659 11.8564 9.73899 12.2133 9.82C12.3911 9.86 12.5711 9.89333 12.7533 9.92C13.0661 9.9871 13.2871 10.2669 13.28 10.5867L13.2933 12.6667Z" fill="#3E6AF2"/>
</svg>
